<svg width="16" height="16" viewBox="0 0 16 16" fill="none" xmlns="http://www.w3.org/2000/svg">
<path d="M6.10664 7.24671C6.03998 7.24004 5.95998 7.24004 5.88664 7.24671C4.29998 7.19337 3.03998 5.89337 3.03998 4.29337C3.03998 2.66004 4.35998 1.33337 5.99998 1.33337C7.63331 1.33337 8.95998 2.66004 8.95998 4.29337C8.95331 5.89337 7.69331 7.19337 6.10664 7.24671Z" stroke="#141219" stroke-linecap="round" stroke-linejoin="round"/>
<path d="M10.94 2.66663C12.2333 2.66663 13.2733 3.71329 13.2733 4.99996C13.2733 6.25996 12.2733 7.28663 11.0267 7.33329C10.9733 7.32663 10.9133 7.32663 10.8533 7.33329" stroke="#141219" stroke-linecap="round" stroke-linejoin="round"/>
<path d="M2.77335 9.70663C1.16002 10.7866 1.16002 12.5466 2.77335 13.62C4.60669 14.8466 7.61335 14.8466 9.44669 13.62C11.06 12.54 11.06 10.78 9.44669 9.70663C7.62002 8.48663 4.61335 8.48663 2.77335 9.70663Z" stroke="#141219" stroke-linecap="round" stroke-linejoin="round"/>
<path d="M12.2267 13.3334C12.7067 13.2334 13.16 13.04 13.5334 12.7534C14.5734 11.9734 14.5734 10.6867 13.5334 9.90671C13.1667 9.62671 12.72 9.44004 12.2467 9.33337" stroke="#141219" stroke-linecap="round" stroke-linejoin="round"/>
</svg>
