<svg width="20" height="20" viewBox="0 0 20 20" fill="none" xmlns="http://www.w3.org/2000/svg">
<path d="M18.3315 8.75033V12.917C18.3315 15.8337 16.6648 17.0837 14.1648 17.0837H5.83148C3.33148 17.0837 1.66481 15.8337 1.66481 12.917V7.08366C1.66481 4.16699 3.33148 2.91699 5.83148 2.91699H11.6648" stroke="white" stroke-width="1.5" stroke-miterlimit="10" stroke-linecap="round" stroke-linejoin="round"/>
<path d="M5.83519 7.5L8.44353 9.58333C9.30186 10.2667 10.7102 10.2667 11.5685 9.58333L12.5519 8.8" stroke="white" stroke-width="1.5" stroke-miterlimit="10" stroke-linecap="round" stroke-linejoin="round"/>
<path d="M16.2481 6.66667C17.3987 6.66667 18.3315 5.73393 18.3315 4.58333C18.3315 3.43274 17.3987 2.5 16.2481 2.5C15.0976 2.5 14.1648 3.43274 14.1648 4.58333C14.1648 5.73393 15.0976 6.66667 16.2481 6.66667Z" stroke="white" stroke-width="1.5" stroke-miterlimit="10" stroke-linecap="round" stroke-linejoin="round"/>
</svg>
