<svg width="20" height="20" viewBox="0 0 20 20" fill="none" xmlns="http://www.w3.org/2000/svg">
<path d="M15.1161 18.0168C14.3828 18.2335 13.5161 18.3335 12.4995 18.3335H7.49948C6.48281 18.3335 5.61615 18.2335 4.88281 18.0168C5.06615 15.8501 7.29115 14.1418 9.99948 14.1418C12.7078 14.1418 14.9328 15.8501 15.1161 18.0168Z" stroke="white" stroke-width="1.5" stroke-linecap="round" stroke-linejoin="round"/>
<path d="M12.4981 1.66687H7.49813C3.33146 1.66687 1.66479 3.33354 1.66479 7.5002V12.5002C1.66479 15.6502 2.6148 17.3752 4.88146 18.0169C5.06479 15.8502 7.28979 14.1418 9.99813 14.1418C12.7065 14.1418 14.9315 15.8502 15.1148 18.0169C17.3815 17.3752 18.3315 15.6502 18.3315 12.5002V7.5002C18.3315 3.33354 16.6648 1.66687 12.4981 1.66687ZM9.99813 11.8085C8.34813 11.8085 7.01479 10.4669 7.01479 8.81689C7.01479 7.16689 8.34813 5.83354 9.99813 5.83354C11.6481 5.83354 12.9815 7.16689 12.9815 8.81689C12.9815 10.4669 11.6481 11.8085 9.99813 11.8085Z" stroke="white" stroke-width="1.5" stroke-linecap="round" stroke-linejoin="round"/>
<path d="M12.9811 8.81648C12.9811 10.4665 11.6477 11.8081 9.99774 11.8081C8.34774 11.8081 7.0144 10.4665 7.0144 8.81648C7.0144 7.16648 8.34774 5.83313 9.99774 5.83313C11.6477 5.83313 12.9811 7.16648 12.9811 8.81648Z" stroke="white" stroke-width="1.5" stroke-linecap="round" stroke-linejoin="round"/>
</svg>
